<?xml version="1.0" standalone="no"?>
<!DOCTYPE svg PUBLIC "-//W3C//DTD SVG 20010904//EN"
 "http://www.w3.org/TR/2001/REC-SVG-20010904/DTD/svg10.dtd">
<svg version="1.0" xmlns="http://www.w3.org/2000/svg"
 width="18.000000pt" height="14.000000pt" viewBox="0 0 18.000000 14.000000"
 preserveAspectRatio="xMidYMid meet">

<g transform="translate(0.000000,14.000000) scale(0.100000,-0.100000)"
fill="#000000" stroke="none">
<path d="M50 110 c-6 -11 -17 -20 -25 -20 -8 0 -15 -9 -15 -20 0 -11 6 -20 13
-20 7 0 18 -9 25 -20 17 -27 68 -27 82 0 6 11 17 20 25 20 8 0 15 9 15 20 0
11 -7 20 -15 20 -8 0 -19 9 -25 20 -15 27 -65 27 -80 0z m70 -5 c10 -12 7 -15
-17 -20 -46 -11 -50 -15 -10 -12 26 2 37 -1 37 -11 0 -7 -4 -11 -9 -8 -5 3 -8
-2 -7 -11 1 -21 -30 -29 -49 -13 -20 16 -19 55 1 74 19 20 38 20 54 1z"/>
<path d="M80 100 c0 -5 5 -10 10 -10 6 0 10 5 10 10 0 6 -4 10 -10 10 -5 0
-10 -4 -10 -10z"/>
<path d="M80 50 c0 -5 5 -10 10 -10 6 0 10 5 10 10 0 6 -4 10 -10 10 -5 0 -10
-4 -10 -10z"/>
</g>
</svg>
